<?xml version="1.0"?>
<svg xmlns="http://www.w3.org/2000/svg" xmlns:xlink="http://www.w3.org/1999/xlink" xmlns:svgjs="http://svgjs.com/svgjs" version="1.1" width="512" height="512" x="0" y="0" viewBox="0 0 512.042 512.042" style="enable-background:new 0 0 512 512" xml:space="preserve" class=""><g>
<path xmlns="http://www.w3.org/2000/svg" style="" d="M472.426,64.468l-213.333-64c-1.993-0.624-4.13-0.624-6.123,0l-213.333,64  c-4.518,1.349-7.615,5.504-7.616,10.219v234.667c0,94.315,143.829,178.219,220.843,202.197c2.083,0.655,4.317,0.655,6.4,0  c76.928-23.979,220.757-107.883,220.757-202.197V74.687C480.023,69.978,476.936,65.825,472.426,64.468z" fill="#ffffff" data-original="#2196f3" class=""/>
<circle xmlns="http://www.w3.org/2000/svg" style="" cx="256.021" cy="245.354" r="117.333" fill="#70d549" data-original="#1976d2" class=""/>
<g xmlns="http://www.w3.org/2000/svg">
	<path style="" d="M256.021,298.687c-28.672,0-51.051-12.309-53.205-29.291c-0.748-5.856,3.392-11.209,9.248-11.957   c5.856-0.748,11.209,3.392,11.957,9.248c0.405,3.115,12.096,10.667,32,10.667c20.693,0,32-8.021,32-10.667   c0,0-0.363-6.656-31.104-10.475l-2.325-0.192c-15.637-2.005-51.904-6.4-51.904-32c0-18.24,22.933-32,53.333-32   c28.672,0,51.051,12.309,53.205,29.269c0.748,5.844-3.383,11.188-9.227,11.936s-11.188-3.383-11.936-9.227   c-0.32-2.475-10.923-10.667-32-10.667c-20.693,0-32,8.021-32,10.667c0,0,0.363,6.699,31.253,10.475l2.133,0.299   c15.659,1.941,51.861,6.4,51.861,32C309.354,284.927,286.421,298.687,256.021,298.687z" fill="#fafafa" data-original="#fafafa" class=""/>
	<path style="" d="M256.021,320.02c-5.891,0-10.667-4.776-10.667-10.667v-128c0-5.891,4.776-10.667,10.667-10.667   c5.891,0,10.667,4.776,10.667,10.667v128C266.688,315.245,261.912,320.02,256.021,320.02z" fill="#fafafa" data-original="#fafafa" class=""/>
</g>
<g xmlns="http://www.w3.org/2000/svg">
</g>
<g xmlns="http://www.w3.org/2000/svg">
</g>
<g xmlns="http://www.w3.org/2000/svg">
</g>
<g xmlns="http://www.w3.org/2000/svg">
</g>
<g xmlns="http://www.w3.org/2000/svg">
</g>
<g xmlns="http://www.w3.org/2000/svg">
</g>
<g xmlns="http://www.w3.org/2000/svg">
</g>
<g xmlns="http://www.w3.org/2000/svg">
</g>
<g xmlns="http://www.w3.org/2000/svg">
</g>
<g xmlns="http://www.w3.org/2000/svg">
</g>
<g xmlns="http://www.w3.org/2000/svg">
</g>
<g xmlns="http://www.w3.org/2000/svg">
</g>
<g xmlns="http://www.w3.org/2000/svg">
</g>
<g xmlns="http://www.w3.org/2000/svg">
</g>
<g xmlns="http://www.w3.org/2000/svg">
</g>
</g></svg>
