<svg id="Layer_1" data-name="Layer 1" xmlns="http://www.w3.org/2000/svg" xmlns:xlink="http://www.w3.org/1999/xlink" viewBox="0 0 282.21 54.99"><defs><style>.cls-1{fill:#00adee;}.cls-2{fill:#b5d33e;}.cls-3{fill:#4d4d4f;}.cls-4{opacity:0.65;fill:url(#linear-gradient);}.cls-5{fill:#4e4d50;}</style><linearGradient id="linear-gradient" x1="28.22" y1="28.9" x2="40.05" y2="37.57" gradientUnits="userSpaceOnUse"><stop offset="0.33" stop-opacity="0"/><stop offset="1"/></linearGradient></defs><circle class="cls-1" cx="26.75" cy="10.71" r="10.71"/><circle class="cls-2" cx="50.26" cy="10.71" r="10.71"/><path class="cls-3" d="M41.47,31.05l-.16.08h0a26.72,26.72,0,0,0-10-2.67l-1.24-.05h-.51A26.79,26.79,0,0,0,2.79,55.16h6.5a20.29,20.29,0,0,1,16.92-20l.44-.07a19.7,19.7,0,0,1,2.9-.21,20.31,20.31,0,0,1,5.2.68l.07,0,0,0C35.87,34.88,40,32,41.47,31.05Z" transform="translate(-2.79 -3.31)"/><path class="cls-4" d="M41.31,31.13h0c-.71.4-6.48,4.43-6.48,4.43h-.06a20.31,20.31,0,0,0-5.2-.68,19.7,19.7,0,0,0-2.9.21l4.65-6.65a26.72,26.72,0,0,1,10,2.67Z" transform="translate(-2.79 -3.31)"/><path class="cls-3" d="M79.8,55.16H73.3c0-.48,0-.95,0-1.41A20.26,20.26,0,0,0,53.05,34.9a20.85,20.85,0,0,0-3.81.36,23.07,23.07,0,0,0-8.69,4,20.33,20.33,0,0,0-6.68,9.42H48.72a20.28,20.28,0,0,0-4.94-7.89,22,22,0,0,1,6.41-2.59,26.63,26.63,0,0,1,5.49,11.25,27,27,0,0,1,.62,5.73h-30a26.74,26.74,0,0,1,45-19.52,27.09,27.09,0,0,1,2.38,2.53A26.62,26.62,0,0,1,79.8,55.16Z" transform="translate(-2.79 -3.31)"/><polygon class="cls-5" points="86.16 46.79 90.31 46.79 90.31 24.16 101.34 24.16 101.34 20.81 86.17 20.8 86.16 46.79"/><path class="cls-5" d="M97,34.87a2.93,2.93,0,0,0-2.23.84,5.37,5.37,0,0,0-1.15,1.85l-.22.59H103V34.87Z" transform="translate(-2.79 -3.31)"/><path class="cls-5" d="M157.44,46.16c-.29-1.12-.59-2.19-.91-3.2a15.28,15.28,0,0,0-1.17-2.82A6.34,6.34,0,0,0,153.47,38a8.51,8.51,0,0,0,3-2.54,6.39,6.39,0,0,0,1.24-3.9v-.07a6.86,6.86,0,0,0-.68-3A7.55,7.55,0,0,0,155.09,26a9.2,9.2,0,0,0-3-1.68,11.79,11.79,0,0,0-3.91-.62c-1.26,0-2.48.07-3.58.21s-2.29.34-3.58.59l-.35.07V50.12h4.15V27.28a14.23,14.23,0,0,1,1.63-.2,10,10,0,0,1,3.78.32,5.27,5.27,0,0,1,1.65,1A4.45,4.45,0,0,1,153,29.77a3.82,3.82,0,0,1,.4,1.72,4,4,0,0,1-.4,1.77,4.87,4.87,0,0,1-1.07,1.41,5.18,5.18,0,0,1-1.48.94,4.49,4.49,0,0,1-1.64.38,3.7,3.7,0,0,0-2.13.71,4.05,4.05,0,0,0-1.3,1.66l-.2.47.49.12a10.67,10.67,0,0,0,1.91.31,11.13,11.13,0,0,0,1.65,0,1.24,1.24,0,0,0,.28,0,3.68,3.68,0,0,1,1.76,1.5,11.9,11.9,0,0,1,1.18,2.67c.32,1,.61,2.11.87,3.22a16.9,16.9,0,0,0,1.11,3.26l.12.25h4.4l-.27-.61A20.64,20.64,0,0,1,157.44,46.16Z" transform="translate(-2.79 -3.31)"/><polygon class="cls-5" points="166.71 20.84 162.52 20.84 162.51 46.82 177.16 46.83 177.2 43.47 166.69 43.47 166.71 20.84"/><path class="cls-5" d="M192.88,24.16l-9.38,26h4.21l2.07-6h9l-.22-.59a6,6,0,0,0-1.12-1.88,2.82,2.82,0,0,0-2.22-.89h-4.34l3.75-10.7,6.94,20.07h4.45l-9.35-26Z" transform="translate(-2.79 -3.31)"/><polygon class="cls-5" points="225.12 39.83 213.26 20.86 209.3 20.86 209.29 46.84 212.96 46.84 212.96 27.18 225.27 46.84 228.88 46.85 228.89 20.86 225.13 20.86 225.12 39.83"/><path class="cls-5" d="M251.72,37.47a19.75,19.75,0,0,0-2.88-1.82c-1-.51-1.93-1-2.79-1.56A10,10,0,0,1,244,32.43a2.9,2.9,0,0,1-.75-2,3.63,3.63,0,0,1,.23-1.28,3,3,0,0,1,.68-1,3.48,3.48,0,0,1,1.12-.72,8,8,0,0,1,3.72-.1,16,16,0,0,1,2.68.58L252,28l1.27-3-.45-.14a25.24,25.24,0,0,0-3.33-.8,19.88,19.88,0,0,0-3-.24h0a8.36,8.36,0,0,0-3,.51,7.16,7.16,0,0,0-2.35,1.43A6.36,6.36,0,0,0,239,30.44a6.13,6.13,0,0,0,.94,3.48,9.17,9.17,0,0,0,2.24,2.37A18.56,18.56,0,0,0,245.09,38a29.27,29.27,0,0,1,2.75,1.51,9,9,0,0,1,2,1.7,3.14,3.14,0,0,1,.75,2.18,3.48,3.48,0,0,1-1.2,2.7,5.09,5.09,0,0,1-3.51,1.11h0a14.33,14.33,0,0,1-2.7-.31,14.61,14.61,0,0,1-3-1l-.41-.18-1.22,3,.36.18a15.82,15.82,0,0,0,1.89.75,17,17,0,0,0,2,.5c.64.11,1.26.2,1.87.26s1.17.09,1.67.09h0a10.47,10.47,0,0,0,3.63-.58,8.39,8.39,0,0,0,2.72-1.56,6.78,6.78,0,0,0,1.7-2.29,6.57,6.57,0,0,0,.57-2.67,6.47,6.47,0,0,0-.93-3.55A9.84,9.84,0,0,0,251.72,37.47Z" transform="translate(-2.79 -3.31)"/><path class="cls-1" d="M121.68,23.65h0a13.48,13.48,0,0,0-13.47,13.12,13.45,13.45,0,0,0,13.46,13.41h0a13.4,13.4,0,0,0,9.52-3.93,13.24,13.24,0,0,0,4-9.47,12.87,12.87,0,0,0-4-9.23A13.53,13.53,0,0,0,121.68,23.65Zm0,23.1h0a9.84,9.84,0,1,1,0-19.67h0A10,10,0,0,1,128.74,30a9.54,9.54,0,0,1,2.88,6.82,9.89,9.89,0,0,1-9.94,10Z" transform="translate(-2.79 -3.31)"/><path class="cls-2" d="M281.05,27.55a13.53,13.53,0,0,0-9.52-3.9h0a13.49,13.49,0,0,0-13.48,13.12,13.46,13.46,0,0,0,13.47,13.41h0A13.47,13.47,0,0,0,285,36.78,12.87,12.87,0,0,0,281.05,27.55Zm.42,9.23a9.9,9.9,0,0,1-9.94,10h0a9.9,9.9,0,0,1-9.94-10,9.52,9.52,0,0,1,2.9-6.82,10,10,0,0,1,7-2.87h0A9.83,9.83,0,0,1,281.47,36.78Z" transform="translate(-2.79 -3.31)"/><path class="cls-5" d="M265.69,57.87v.43h10.09a2.78,2.78,0,0,0,2.77-2.78v-.43H268.46A2.78,2.78,0,0,0,265.69,57.87Z" transform="translate(-2.79 -3.31)"/><path class="cls-5" d="M115.48,57.87v.43h10.09a2.79,2.79,0,0,0,2.78-2.78v-.43H118.26A2.78,2.78,0,0,0,115.48,57.87Z" transform="translate(-2.79 -3.31)"/></svg>