<svg id="Layer_1" data-name="Layer 1" xmlns="http://www.w3.org/2000/svg" xmlns:xlink="http://www.w3.org/1999/xlink" viewBox="0 0 290 197"><defs><style>.cls-1{fill:#00adee;}.cls-2{fill:#b5d33e;}.cls-3{fill:#4d4d4f;}.cls-4{opacity:0.65;fill:url(#linear-gradient);}</style><linearGradient id="linear-gradient" x1="98.68" y1="104.32" x2="143.29" y2="137" gradientUnits="userSpaceOnUse"><stop offset="0.33" stop-opacity="0"/><stop offset="1"/></linearGradient></defs><ellipse class="cls-1" cx="100.74" cy="40.69" rx="40.33" ry="40.69"/><ellipse class="cls-2" cx="189.26" cy="40.69" rx="40.33" ry="40.69"/><path class="cls-3" d="M148.64,112.4l-.59.28h0l0,0a99.24,99.24,0,0,0-37.66-10.14c-1.54-.11-3.09-.17-4.65-.2l-1.94,0C48.2,102.35,3,148,3,204H27.47c0-38.12,27.6-69.85,63.7-75.92l1.65-.26a76.07,76.07,0,0,1,30.51,1.8l.28.08-.13.12C127.56,127,143.14,116,148.64,112.4Z" transform="translate(-3 -7)"/><path class="cls-4" d="M148,112.69s0,0-.06,0c-2.68,1.5-24.43,16.83-24.43,16.83l-.22.05a76.07,76.07,0,0,0-30.51-1.8l17.52-25.25A99.24,99.24,0,0,1,148,112.71Z" transform="translate(-3 -7)"/><path class="cls-3" d="M293,204H268.53c0-1.8-.06-3.59-.18-5.36a77.1,77.1,0,0,0-16.3-42.38,75.77,75.77,0,0,0-74.13-27.85,86.21,86.21,0,0,0-32.74,15.1A77.18,77.18,0,0,0,120,179.31H176a77.17,77.17,0,0,0-18.62-30,82.18,82.18,0,0,1,24.15-9.86,101.75,101.75,0,0,1,23,64.53h-113a101.79,101.79,0,0,1,32-74.18c7.81-7.16,17-13.78,25.16-17.42a99.83,99.83,0,0,1,112.44,17.43A102,102,0,0,1,293,204Z" transform="translate(-3 -7)"/></svg>